PageBot-Regular.ufo
<glyph name="dollar" format="2">
  <advance width="503"/>
  <unicode hex="0024"/>
  <outline>
    <contour>
      <point x="218" y="-96" type="line"/>
      <point x="292" y="-96" type="line"/>
      <point x="292" y="-11" type="line"/>
      <point x="389" y="7"/>
      <point x="449" y="79"/>
      <point x="449" y="178" type="curve" smooth="yes"/>
      <point x="449" y="269"/>
      <point x="400" y="326"/>
      <point x="292" y="369" type="curve"/>
      <point x="292" y="594" type="line"/>
      <point x="342" y="588"/>
      <point x="387" y="568"/>
      <point x="429" y="535" type="curve"/>
      <point x="429" y="627" type="line"/>
      <point x="384" y="652"/>
      <point x="340" y="667"/>
      <point x="292" y="671" type="curve"/>
      <point x="292" y="755" type="line"/>
      <point x="218" y="755" type="line"/>
      <point x="218" y="670" type="line"/>
      <point x="120" y="656"/>
      <point x="60" y="588"/>
      <point x="60" y="494" type="curve" smooth="yes"/>
      <point x="60" y="400"/>
      <point x="110" y="346"/>
      <point x="218" y="305" type="curve"/>
      <point x="218" y="64" type="line"/>
      <point x="159" y="68"/>
      <point x="105" y="89"/>
      <point x="57" y="125" type="curve"/>
      <point x="57" y="35" type="line"/>
      <point x="106" y="5"/>
      <point x="160" y="-11"/>
      <point x="218" y="-14" type="curve"/>
    </contour>
    <contour>
      <point x="145" y="496" type="curve" smooth="yes"/>
      <point x="145" y="544"/>
      <point x="171" y="577"/>
      <point x="218" y="589" type="curve"/>
      <point x="218" y="398" type="line"/>
      <point x="168" y="423"/>
      <point x="145" y="451"/>
    </contour>
    <contour>
      <point x="364" y="169" type="curve" smooth="yes"/>
      <point x="364" y="121"/>
      <point x="337" y="86"/>
      <point x="292" y="71" type="curve"/>
      <point x="292" y="274" type="line"/>
      <point x="342" y="247"/>
      <point x="364" y="216"/>
    </contour>
  </outline>
</glyph>
<glyph name="percent" format="2">
  <advance width="854"/>
  <unicode hex="0025"/>
  <outline>
    <contour>
      <point x="202" y="352" type="curve" smooth="yes"/>
      <point x="304" y="352"/>
      <point x="367" y="426"/>
      <point x="367" y="541" type="curve" smooth="yes"/>
      <point x="367" y="655"/>
      <point x="304" y="728"/>
      <point x="202" y="728" type="curve" smooth="yes"/>
      <point x="101" y="728"/>
      <point x="38" y="654"/>
      <point x="38" y="540" type="curve" smooth="yes"/>
      <point x="38" y="425"/>
      <point x="101" y="352"/>
    </contour>
    <contour>
      <point x="242" y="0" type="line"/>
      <point x="312" y="0" type="line"/>
      <point x="596" y="720" type="line"/>
      <point x="527" y="720" type="line"/>
    </contour>
    <contour>
      <point x="202" y="415" type="curve" smooth="yes"/>
      <point x="145" y="415"/>
      <point x="107" y="465"/>
      <point x="107" y="541" type="curve" smooth="yes"/>
      <point x="107" y="616"/>
      <point x="145" y="665"/>
      <point x="202" y="665" type="curve" smooth="yes"/>
      <point x="260" y="665"/>
      <point x="298" y="615"/>
      <point x="298" y="540" type="curve" smooth="yes"/>
      <point x="298" y="464"/>
      <point x="260" y="415"/>
    </contour>
    <contour>
      <point x="651" y="-8" type="curve" smooth="yes"/>
      <point x="753" y="-8"/>
      <point x="816" y="66"/>
      <point x="816" y="181" type="curve" smooth="yes"/>
      <point x="816" y="295"/>
      <point x="753" y="368"/>
      <point x="651" y="368" type="curve" smooth="yes"/>
      <point x="550" y="368"/>
      <point x="487" y="294"/>
      <point x="487" y="180" type="curve" smooth="yes"/>
      <point x="487" y="65"/>
      <point x="550" y="-8"/>
    </contour>
    <contour>
      <point x="651" y="55" type="curve" smooth="yes"/>
      <point x="594" y="55"/>
      <point x="556" y="105"/>
      <point x="556" y="181" type="curve" smooth="yes"/>
      <point x="556" y="256"/>
      <point x="594" y="305"/>
      <point x="651" y="305" type="curve" smooth="yes"/>
      <point x="709" y="305"/>
      <point x="747" y="255"/>
      <point x="747" y="180" type="curve" smooth="yes"/>
      <point x="747" y="104"/>
      <point x="709" y="55"/>
    </contour>
  </outline>
</glyph>
<glyph name="ampersand" format="2">
  <advance width="604"/>
  <unicode hex="0026"/>
  <outline>
    <contour>
      <point x="231" y="-14" type="curve" smooth="yes"/>
      <point x="313" y="-14"/>
      <point x="368" y="20"/>
      <point x="409" y="63" type="curve"/>
      <point x="463" y="0" type="line"/>
      <point x="575" y="0" type="line"/>
      <point x="460" y="133" type="line"/>
      <point x="499" y="195"/>
      <point x="518" y="284"/>
      <point x="518" y="385" type="curve"/>
      <point x="442" y="385" type="line"/>
      <point x="442" y="303"/>
      <point x="430" y="240"/>
      <point x="407" y="194" type="curve"/>
      <point x="254" y="371" type="line" smooth="yes"/>
      <point x="215" y="417"/>
      <point x="194" y="457"/>
      <point x="194" y="498" type="curve" smooth="yes"/>
      <point x="194" y="558"/>
      <point x="237" y="598"/>
      <point x="303" y="598" type="curve" smooth="yes"/>
      <point x="351" y="598"/>
      <point x="399" y="578"/>
      <point x="443" y="538" type="curve"/>
      <point x="443" y="623" type="line"/>
      <point x="398" y="656"/>
      <point x="346" y="673"/>
      <point x="294" y="673" type="curve" smooth="yes"/>
      <point x="182" y="673"/>
      <point x="110" y="605"/>
      <point x="110" y="504" type="curve" smooth="yes"/>
      <point x="110" y="461"/>
      <point x="122" y="417"/>
      <point x="147" y="375" type="curve"/>
      <point x="66" y="333"/>
      <point x="25" y="263"/>
      <point x="25" y="181" type="curve" smooth="yes"/>
      <point x="25" y="66"/>
      <point x="103" y="-14"/>
    </contour>
    <contour>
      <point x="110" y="185" type="curve" smooth="yes"/>
      <point x="110" y="244"/>
      <point x="136" y="286"/>
      <point x="191" y="317" type="curve"/>
      <point x="360" y="120" type="line"/>
      <point x="331" y="85"/>
      <point x="292" y="60"/>
      <point x="241" y="60" type="curve" smooth="yes"/>
      <point x="161" y="60"/>
      <point x="110" y="111"/>
    </contour>
  </outline>
</glyph>
<glyph name="eight" format="2">
  <advance width="537"/>
  <unicode hex="0038"/>
  <outline>
    <contour>
      <point x="269" y="-14" type="curve" smooth="yes"/>
      <point x="409" y="-14"/>
      <point x="484" y="66"/>
      <point x="484" y="172" type="curve" smooth="yes"/>
      <point x="484" y="252"/>
      <point x="437" y="305"/>
      <point x="355" y="344" type="curve"/>
      <point x="432" y="379"/>
      <point x="473" y="431"/>
      <point x="473" y="505" type="curve" smooth="yes"/>
      <point x="473" y="598"/>
      <point x="398" y="672"/>
      <point x="269" y="672" type="curve" smooth="yes"/>
      <point x="139" y="672"/>
      <point x="66" y="593"/>
      <point x="66" y="495" type="curve" smooth="yes"/>
      <point x="66" y="422"/>
      <point x="104" y="372"/>
      <point x="175" y="335" type="curve"/>
      <point x="98" y="299"/>
      <point x="53" y="243"/>
      <point x="53" y="166" type="curve" smooth="yes"/>
      <point x="53" y="66"/>
      <point x="126" y="-14"/>
    </contour>
    <contour>
      <point x="152" y="496" type="curve" smooth="yes"/>
      <point x="152" y="556"/>
      <point x="200" y="600"/>
      <point x="269" y="600" type="curve" smooth="yes"/>
      <point x="339" y="600"/>
      <point x="386" y="556"/>
      <point x="386" y="497" type="curve" smooth="yes"/>
      <point x="386" y="438"/>
      <point x="344" y="396"/>
      <point x="274" y="375" type="curve" smooth="yes"/>
      <point x="259" y="380" type="line" smooth="yes"/>
      <point x="194" y="403"/>
      <point x="152" y="442"/>
    </contour>
    <contour>
      <point x="138" y="171" type="curve" smooth="yes"/>
      <point x="138" y="234"/>
      <point x="183" y="279"/>
      <point x="253" y="303" type="curve"/>
      <point x="279" y="294" type="line" smooth="yes"/>
      <point x="353" y="268"/>
      <point x="397" y="232"/>
      <point x="397" y="171" type="curve" smooth="yes"/>
      <point x="397" y="108"/>
      <point x="352" y="58"/>
      <point x="268" y="58" type="curve" smooth="yes"/>
      <point x="188" y="58"/>
      <point x="138" y="110"/>
    </contour>
  </outline>
</glyph>
<glyph name="colon" format="2">
  <advance width="186"/>
  <unicode hex="003A"/>
  <outline>
    <contour>
      <point x="51" y="301" type="line"/>
      <point x="136" y="301" type="line"/>
      <point x="136" y="386" type="line"/>
      <point x="51" y="386" type="line"/>
    </contour>
    <contour>
      <point x="51" y="0" type="line"/>
      <point x="136" y="0" type="line"/>
      <point x="136" y="85" type="line"/>
      <point x="51" y="85" type="line"/>
    </contour>
  </outline>
</glyph>
<glyph name="semicolon" format="2">
  <advance width="197"/>
  <unicode hex="003B"/>
  <outline>
    <contour>
      <point x="68" y="301" type="line"/>
      <point x="153" y="301" type="line"/>
      <point x="153" y="386" type="line"/>
      <point x="68" y="386" type="line"/>
    </contour>
    <contour>
      <point x="149" y="95" type="line"/>
      <point x="69" y="95" type="line"/>
      <point x="69" y="15" type="line" smooth="yes"/>
      <point x="69" y="-44"/>
      <point x="55" y="-83"/>
      <point x="28" y="-127" type="curve"/>
      <point x="83" y="-152" type="line"/>
      <point x="122" y="-110"/>
      <point x="149" y="-48"/>
      <point x="149" y="19" type="curve" smooth="yes"/>
    </contour>
  </outline>
</glyph>
<glyph name="A" format="2">
  <advance width="643"/>
  <unicode hex="0041"/>
  <outline>
    <contour>
      <point x="20" y="0" type="line"/>
      <point x="106" y="0" type="line"/>
      <point x="181" y="197" type="line"/>
      <point x="457" y="197" type="line"/>
      <point x="532" y="0" type="line"/>
      <point x="623" y="0" type="line"/>
      <point x="361" y="664" type="line"/>
      <point x="282" y="664" type="line"/>
    </contour>
    <contour>
      <point x="209" y="271" type="line"/>
      <point x="292" y="488" type="line"/>
      <point x="319" y="563" type="line"/>
      <point x="345" y="488" type="line"/>
      <point x="429" y="271" type="line"/>
    </contour>
  </outline>
</glyph>
<glyph name="H" format="2">
  <advance width="111"/>
  <unicode hex="0048"/>
  <outline>
    <contour>
      <point x="72" y="0" type="line"/>
      <point x="156" y="0" type="line"/>
      <point x="156" y="297" type="line"/>
      <point x="528" y="297" type="line"/>
      <point x="528" y="0" type="line"/>
      <point x="612" y="0" type="line"/>
      <point x="612" y="658" type="line"/>
      <point x="528" y="658" type="line"/>
      <point x="528" y="376" type="line"/>
      <point x="156" y="376" type="line"/>
      <point x="156" y="658" type="line"/>
      <point x="72" y="658" type="line"/>
    </contour>
  </outline>
</glyph>
<glyph name="J" format="2">
  <advance width="230"/>
  <unicode hex="004A"/>
  <outline>
    <contour>
      <point x="-18" y="-220" type="line" smooth="yes"/>
      <point x="90" y="-220"/>
      <point x="157" y="-151"/>
      <point x="157" y="-43" type="curve" smooth="yes"/>
      <point x="157" y="658" type="line"/>
      <point x="73" y="658" type="line"/>
      <point x="73" y="-43" type="line" smooth="yes"/>
      <point x="73" y="-104"/>
      <point x="38" y="-142"/>
      <point x="-18" y="-142" type="curve" smooth="yes"/>
      <point x="-26" y="-142" type="line"/>
      <point x="-26" y="-220" type="line"/>
    </contour>
  </outline>
</glyph>
<glyph name="K" format="2">
  <advance width="586"/>
  <unicode hex="004B"/>
  <outline>
    <contour>
      <point x="72" y="0" type="line"/>
      <point x="156" y="0" type="line"/>
      <point x="156" y="317" type="line"/>
      <point x="448" y="0" type="line"/>
      <point x="560" y="1" type="line"/>
      <point x="242" y="342" type="line"/>
      <point x="542" y="658" type="line"/>
      <point x="438" y="658" type="line"/>
      <point x="156" y="355" type="line"/>
      <point x="156" y="658" type="line"/>
      <point x="72" y="658" type="line"/>
    </contour>
  </outline>
</glyph>
<glyph name="Q" format="2">
  <advance width="775"/>
  <unicode hex="0051"/>
  <outline>
    <contour>
      <point x="388" y="-15" type="curve" smooth="yes"/>
      <point x="401" y="-15"/>
      <point x="414" y="-14"/>
      <point x="427" y="-13" type="curve"/>
      <point x="490" y="-76"/>
      <point x="571" y="-119"/>
      <point x="667" y="-141" type="curve"/>
      <point x="691" y="-62" type="line"/>
      <point x="624" y="-52"/>
      <point x="570" y="-27"/>
      <point x="529" y="11" type="curve"/>
      <point x="651" y="59"/>
      <point x="727" y="175"/>
      <point x="727" y="329" type="curve" smooth="yes"/>
      <point x="727" y="537"/>
      <point x="586" y="673"/>
      <point x="388" y="673" type="curve" smooth="yes"/>
      <point x="189" y="673"/>
      <point x="48" y="534"/>
      <point x="48" y="329" type="curve" smooth="yes"/>
      <point x="48" y="125"/>
      <point x="185" y="-15"/>
    </contour>
    <contour>
      <point x="388" y="63" type="curve" smooth="yes"/>
      <point x="238" y="63"/>
      <point x="134" y="169"/>
      <point x="134" y="329" type="curve" smooth="yes"/>
      <point x="134" y="489"/>
      <point x="238" y="595"/>
      <point x="388" y="595" type="curve" smooth="yes"/>
      <point x="538" y="595"/>
      <point x="641" y="489"/>
      <point x="641" y="329" type="curve" smooth="yes"/>
      <point x="641" y="169"/>
      <point x="538" y="63"/>
    </contour>
  </outline>
</glyph>
<glyph name="R" format="2">
  <advance width="534"/>
  <unicode hex="0052"/>
  <outline>
    <contour>
      <point x="416" y="0" type="line"/>
      <point x="507" y="0" type="line"/>
      <point x="422" y="225" type="line" smooth="yes"/>
      <point x="402" y="275"/>
      <point x="372" y="307"/>
      <point x="328" y="320" type="curve"/>
      <point x="408" y="343"/>
      <point x="451" y="405"/>
      <point x="451" y="484" type="curve" smooth="yes"/>
      <point x="451" y="589"/>
      <point x="374" y="658"/>
      <point x="249" y="658" type="curve" smooth="yes"/>
      <point x="72" y="658" type="line"/>
      <point x="72" y="0" type="line"/>
      <point x="156" y="0" type="line"/>
      <point x="156" y="288" type="line"/>
      <point x="231" y="288" type="line" smooth="yes"/>
      <point x="284" y="288"/>
      <point x="320" y="263"/>
      <point x="340" y="206" type="curve" smooth="yes"/>
    </contour>
    <contour>
      <point x="156" y="360" type="line"/>
      <point x="156" y="582" type="line"/>
      <point x="246" y="582" type="line" smooth="yes"/>
      <point x="319" y="582"/>
      <point x="366" y="540"/>
      <point x="366" y="473" type="curve" smooth="yes"/>
      <point x="366" y="403"/>
      <point x="322" y="360"/>
      <point x="249" y="360" type="curve" smooth="yes"/>
    </contour>
  </outline>
</glyph>
<glyph name="X" format="2">
  <advance width="618"/>
  <unicode hex="0058"/>
  <outline>
    <contour>
      <point x="26" y="0" type="line"/>
      <point x="122" y="0" type="line"/>
      <point x="275" y="229" type="line"/>
      <point x="304" y="272" type="line"/>
      <point x="334" y="229" type="line"/>
      <point x="490" y="0" type="line"/>
      <point x="592" y="0" type="line"/>
      <point x="356" y="342" type="line"/>
      <point x="573" y="658" type="line"/>
      <point x="478" y="658" type="line"/>
      <point x="338" y="450" type="line"/>
      <point x="309" y="406" type="line"/>
      <point x="280" y="450" type="line"/>
      <point x="141" y="658" type="line"/>
      <point x="39" y="658" type="line"/>
      <point x="257" y="338" type="line"/>
    </contour>
  </outline>
</glyph>
<glyph name="Y" format="2">
  <advance width="590"/>
  <unicode hex="0059"/>
  <outline>
    <contour>
      <point x="253" y="0" type="line"/>
      <point x="337" y="0" type="line"/>
      <point x="337" y="280" type="line"/>
      <point x="577" y="658" type="line"/>
      <point x="485" y="658" type="line"/>
      <point x="331" y="414" type="line"/>
      <point x="298" y="358" type="line"/>
      <point x="266" y="414" type="line"/>
      <point x="111" y="658" type="line"/>
      <point x="13" y="658" type="line"/>
      <point x="253" y="281" type="line"/>
    </contour>
  </outline>
</glyph>
<glyph name="a" format="2">
  <advance width="454"/>
  <unicode hex="0061"/>
  <outline>
    <contour>
      <point x="181" y="-10" type="curve" smooth="yes"/>
      <point x="238" y="-10"/>
      <point x="286" y="16"/>
      <point x="315" y="63" type="curve"/>
      <point x="321" y="0" type="line"/>
      <point x="396" y="0" type="line"/>
      <point x="396" y="323" type="line" smooth="yes"/>
      <point x="396" y="424"/>
      <point x="333" y="479"/>
      <point x="219" y="479" type="curve" smooth="yes"/>
      <point x="167" y="479"/>
      <point x="111" y="463"/>
      <point x="59" y="440" type="curve"/>
      <point x="59" y="359" type="line"/>
      <point x="106" y="389"/>
      <point x="155" y="404"/>
      <point x="209" y="404" type="curve" smooth="yes"/>
      <point x="276" y="404"/>
      <point x="314" y="378"/>
      <point x="314" y="321" type="curve" smooth="yes"/>
      <point x="314" y="294" type="line"/>
      <point x="215" y="281" type="line" smooth="yes"/>
      <point x="100" y="264"/>
      <point x="38" y="208"/>
      <point x="38" y="124" type="curve" smooth="yes"/>
      <point x="38" y="42"/>
      <point x="94" y="-10"/>
    </contour>
    <contour>
      <point x="204" y="57" type="curve" smooth="yes"/>
      <point x="151" y="57"/>
      <point x="119" y="86"/>
      <point x="119" y="132" type="curve" smooth="yes"/>
      <point x="119" y="181"/>
      <point x="157" y="214"/>
      <point x="225" y="223" type="curve" smooth="yes"/>
      <point x="314" y="235" type="line"/>
      <point x="314" y="128" type="line"/>
      <point x="296" y="86"/>
      <point x="255" y="57"/>
    </contour>
  </outline>
</glyph>
<glyph name="d" format="2">
  <advance width="521"/>
  <unicode hex="0064"/>
  <outline>
    <contour>
      <point x="245" y="-10" type="curve" smooth="yes"/>
      <point x="298" y="-10"/>
      <point x="349" y="17"/>
      <point x="378" y="63" type="curve"/>
      <point x="384" y="0" type="line"/>
      <point x="459" y="0" type="line"/>
      <point x="459" y="720" type="line"/>
      <point x="377" y="720" type="line"/>
      <point x="377" y="441" type="line"/>
      <point x="343" y="463"/>
      <point x="300" y="476"/>
      <point x="259" y="476" type="curve" smooth="yes"/>
      <point x="132" y="476"/>
      <point x="41" y="386"/>
      <point x="41" y="229" type="curve" smooth="yes"/>
      <point x="41" y="76"/>
      <point x="125" y="-10"/>
    </contour>
    <contour>
      <point x="261" y="62" type="curve" smooth="yes"/>
      <point x="175" y="62"/>
      <point x="124" y="129"/>
      <point x="124" y="232" type="curve" smooth="yes"/>
      <point x="124" y="336"/>
      <point x="180" y="405"/>
      <point x="269" y="405" type="curve" smooth="yes"/>
      <point x="309" y="405"/>
      <point x="347" y="391"/>
      <point x="377" y="366" type="curve"/>
      <point x="377" y="132" type="line"/>
      <point x="353" y="90"/>
      <point x="311" y="62"/>
    </contour>
  </outline>
</glyph>
<glyph name="e" format="2">
  <advance width="500"/>
  <unicode hex="0065"/>
  <outline>
    <contour>
      <point x="274" y="-10" type="curve" smooth="yes"/>
      <point x="332" y="-10"/>
      <point x="390" y="6"/>
      <point x="447" y="38" type="curve"/>
      <point x="447" y="116" type="line"/>
      <point x="392" y="79"/>
      <point x="338" y="60"/>
      <point x="283" y="60" type="curve" smooth="yes"/>
      <point x="183" y="60"/>
      <point x="126" y="118"/>
      <point x="125" y="211" type="curve"/>
      <point x="459" y="211" type="line"/>
      <point x="459" y="241" type="line" smooth="yes"/>
      <point x="459" y="393"/>
      <point x="382" y="476"/>
      <point x="256" y="476" type="curve" smooth="yes"/>
      <point x="125" y="476"/>
      <point x="41" y="379"/>
      <point x="41" y="234" type="curve" smooth="yes"/>
      <point x="41" y="82"/>
      <point x="126" y="-10"/>
    </contour>
    <contour>
      <point x="255" y="408" type="curve" smooth="yes"/>
      <point x="332" y="408"/>
      <point x="377" y="357"/>
      <point x="377" y="274" type="curve"/>
      <point x="125" y="274" type="line"/>
      <point x="130" y="355"/>
      <point x="181" y="408"/>
    </contour>
  </outline>
</glyph>
<glyph name="h" format="2">
  <advance width="502"/>
  <unicode hex="0068"/>
  <outline>
    <contour>
      <point x="63" y="0" type="line"/>
      <point x="144" y="0" type="line"/>
      <point x="144" y="333" type="line"/>
      <point x="171" y="375"/>
      <point x="213" y="402"/>
      <point x="261" y="402" type="curve" smooth="yes"/>
      <point x="324" y="402"/>
      <point x="361" y="364"/>
      <point x="361" y="290" type="curve" smooth="yes"/>
      <point x="361" y="0" type="line"/>
      <point x="443" y="0" type="line"/>
      <point x="443" y="304" type="line" smooth="yes"/>
      <point x="443" y="411"/>
      <point x="386" y="476"/>
      <point x="284" y="476" type="curve" smooth="yes"/>
      <point x="228" y="476"/>
      <point x="178" y="449"/>
      <point x="144" y="403" type="curve"/>
      <point x="144" y="720" type="line"/>
      <point x="63" y="720" type="line"/>
    </contour>
  </outline>
</glyph>
<glyph name="n" format="2">
  <advance width="502"/>
  <unicode hex="006E"/>
  <outline>
    <contour>
      <point x="63" y="0" type="line"/>
      <point x="144" y="0" type="line"/>
      <point x="144" y="333" type="line"/>
      <point x="171" y="375"/>
      <point x="213" y="402"/>
      <point x="261" y="402" type="curve" smooth="yes"/>
      <point x="324" y="402"/>
      <point x="361" y="364"/>
      <point x="361" y="290" type="curve" smooth="yes"/>
      <point x="361" y="0" type="line"/>
      <point x="443" y="0" type="line"/>
      <point x="443" y="304" type="line" smooth="yes"/>
      <point x="443" y="411"/>
      <point x="386" y="476"/>
      <point x="284" y="476" type="curve" smooth="yes"/>
      <point x="228" y="476"/>
      <point x="178" y="449"/>
      <point x="144" y="403" type="curve"/>
      <point x="144" y="466" type="line"/>
      <point x="63" y="466" type="line"/>
    </contour>
  </outline>
</glyph>
<glyph name="w" format="2">
  <advance width="743"/>
  <unicode hex="0077"/>
  <outline>
    <contour>
      <point x="166" y="0" type="line"/>
      <point x="260" y="0" type="line"/>
      <point x="355" y="296" type="line"/>
      <point x="373" y="366" type="line"/>
      <point x="390" y="296" type="line"/>
      <point x="483" y="0" type="line"/>
      <point x="577" y="0" type="line"/>
      <point x="727" y="466" type="line"/>
      <point x="649" y="466" type="line"/>
      <point x="549" y="151" type="line"/>
      <point x="533" y="87" type="line"/>
      <point x="517" y="151" type="line"/>
      <point x="418" y="466" type="line"/>
      <point x="333" y="466" type="line"/>
      <point x="234" y="151" type="line"/>
      <point x="218" y="86" type="line"/>
      <point x="202" y="151" type="line"/>
      <point x="101" y="466" type="line"/>
      <point x="16" y="466" type="line"/>
    </contour>
  </outline>
</glyph>
<glyph name="z" format="2">
  <advance width="434"/>
  <unicode hex="007A"/>
  <outline>
    <contour>
      <point x="40" y="0" type="line"/>
      <point x="395" y="0" type="line"/>
      <point x="395" y="74" type="line"/>
      <point x="149" y="74" type="line"/>
      <point x="177" y="111" type="line"/>
      <point x="390" y="408" type="line"/>
      <point x="390" y="466" type="line"/>
      <point x="44" y="466" type="line"/>
      <point x="44" y="392" type="line"/>
      <point x="281" y="392" type="line"/>
      <point x="252" y="355" type="line"/>
      <point x="40" y="58" type="line"/>
    </contour>
  </outline>
</glyph>
